<svg xmlns="http://www.w3.org/2000/svg" xmlns:xlink="http://www.w3.org/1999/xlink" viewBox="0 0 179.61 154.32"><defs><style>.cls-1{fill:none;}.cls-2{isolation:isolate;}.cls-3{clip-path:url(#clip-path);}.cls-12,.cls-15,.cls-4{fill:#fff;}.cls-10,.cls-5{mix-blend-mode:multiply;}.cls-6{fill:#ccc;}.cls-7{fill:#4c7bbf;}.cls-8{fill:#39c1f1;}.cls-9{fill:#1a74b2;}.cls-10{fill:#84d1f6;}.cls-11{fill:#aad24e;}.cls-12{mix-blend-mode:overlay;}.cls-13{fill:#b3b3b3;}.cls-14{fill:#214789;}.cls-15{font-size:12.93px;font-family:NewAthleticM54, New Athletic M54;}</style><clipPath id="clip-path"><path class="cls-1" d="M100,126.58c0,1.76,5,3.35,3.87,4.47,0,.29-2.84.45-2.84.75a6.17,6.17,0,0,1-3.56,5.58l4.64.58a6.15,6.15,0,0,1-3.28,5.44H182V54.77H105a29,29,0,0,1,10.54,41.4L112,100.49c0,.06-5.19,5.41-7,15.37l-.06.34c1.58,1.11.87,1.88.87,2.35Z"/></clipPath></defs><g class="cls-2"><g id="Layer_2" data-name="Layer 2"><g id="OBJECTS"><g class="cls-3"><path class="cls-4" d="M62.39,64.17v60.31a2,2,0,0,0,2,2H168.61a2,2,0,0,0,2-2V64.17a5.52,5.52,0,0,0-5.52-5.51H67.9A5.51,5.51,0,0,0,62.39,64.17Zm3.53,0a2,2,0,0,1,2-2h97.17a2,2,0,0,1,2,2v53.2a2,2,0,0,1-2,2H67.9a2,2,0,0,1-2-2Z"/><path class="cls-4" d="M103.65,130.63A2.37,2.37,0,0,0,106,133h20.89a2.37,2.37,0,0,0,2.37-2.37h50.33a6.81,6.81,0,0,1-6.81,6.81H60.08a6.8,6.8,0,0,1-6.81-6.81Z"/></g><g class="cls-5"><path class="cls-6" d="M49.14,100.52c-.4-1.11-.75-2.25-1-3.39a36,36,0,0,1-1-5.77l-.34.23a1.25,1.25,0,0,1-1.7-.35,1.21,1.21,0,0,1,.35-1.69c.38-.26.78-.51,1.19-.76a.92.92,0,0,1,.36-.15v-.33c0-.6,0-1.2,0-1.8.05-1.2.17-2.41.34-3.61.07-.48.15-1,.27-1.6l.06-.34c.11-.54.22-1,.34-1.53l.07-.27c.11-.46.24-.92.37-1.38l.07-.26c.14-.47.3-1,.48-1.47l.12-.34c.2-.56.38-1,.56-1.47l0-.08c.18-.41.37-.86.6-1.36l.16-.35c.23-.47.44-.91.67-1.34l.16-.3c.21-.39.42-.77.65-1.16l.16-.27c.24-.41.5-.82.79-1.26.07-.12.15-.23.23-.35.32-.48.6-.88.86-1.24A36.83,36.83,0,0,1,70,54.15l-3.81,6.21A1.23,1.23,0,0,1,67,58.81a1.25,1.25,0,0,1,.93.06,1.21,1.21,0,0,1,.62.71l3.8-6.25A36.49,36.49,0,0,1,116.72,73a1.15,1.15,0,0,1,.37,0l1.41.22a1.22,1.22,0,0,1,1,1.41,1.2,1.2,0,0,1-1.41,1l-.31-.05a36.15,36.15,0,0,1,2.16,11.09,1.23,1.23,0,0,1,1.23,1.46,1.21,1.21,0,0,1-.52.78l-.71.46a36.83,36.83,0,0,1-4.62,16.53c-.49.89-1,1.76-1.59,2.6l-.25.35c-.26.39-.54.77-.82,1.14l-.41.55-.48.6q-.39.48-.81,1l-.37.42,0,0c-.27.3-.54.59-.82.88l0,0-.28.29c-.33.33-.67.65-1,1l-.29.28-1.18,1-.26.21c-.49.4-.91.73-1.31,1l-1.24.89c-.83.56-1.69,1.1-2.56,1.6-.42.24-.86.48-1.31.71-.87.45-1.77.87-2.67,1.25-.56.23-1.13.45-1.75.68l3.66,10.75a1.23,1.23,0,0,1-.76,1.55,1.34,1.34,0,0,1-.4.06,1.21,1.21,0,0,1-1.15-.82l-3.68-10.8a36.28,36.28,0,0,1-10,1.4,36.77,36.77,0,0,1-12.25-2.1c-.66-.24-1.31-.49-2-.76a35.53,35.53,0,0,1-4.69-2.37l-.89-.56A36.5,36.5,0,0,1,54.26,110a37.74,37.74,0,0,1-3-4.8,1.21,1.21,0,0,1-1,.51h-.13c-1-.11-1.94-.24-2.81-.4a1.22,1.22,0,0,1-1-1.42,1.24,1.24,0,0,1,.51-.79,1.27,1.27,0,0,1,.91-.2c.79.15,1.65.27,2.55.37-.16-.35-.32-.71-.47-1.06C49.56,101.64,49.34,101.08,49.14,100.52Z"/><path class="cls-6" d="M124.05,77.53a1.32,1.32,0,0,1-.61-.16,11.38,11.38,0,0,0-2.28-1,1.22,1.22,0,0,1,.74-2.33h0a14.32,14.32,0,0,1,2.77,1.19,1.22,1.22,0,0,1,.44,1.67A1.21,1.21,0,0,1,124.05,77.53Z"/><path class="cls-6" d="M123.7,83.25h0a1.22,1.22,0,1,1,1.82,1.62,18.87,18.87,0,0,1-2.12,2,1.24,1.24,0,0,1-.78.28,1.22,1.22,0,0,1-1.22-1.33,1.22,1.22,0,0,1,.44-.83A17.81,17.81,0,0,0,123.7,83.25Z"/><path class="cls-6" d="M125.21,80.9a3.14,3.14,0,0,0,.17-1,2.72,2.72,0,0,0,0-.49,2.06,2.06,0,0,0-.12-.35,1.23,1.23,0,0,1,.64-1.61,1.27,1.27,0,0,1,.94,0,1.24,1.24,0,0,1,.67.66,4.83,4.83,0,0,1,.25.76,5.19,5.19,0,0,1,.11,1,5.44,5.44,0,0,1-.3,1.74,1.24,1.24,0,0,1-1.16.83,1.4,1.4,0,0,1-.4-.07A1.22,1.22,0,0,1,125.21,80.9Z"/><path class="cls-6" d="M38.48,96.71a1.2,1.2,0,0,1,.63-.68,1.18,1.18,0,0,1,.94,0,1.23,1.23,0,0,1,.72,1.57,3,3,0,0,0-.21,1,2,2,0,0,0,.06.49c0,.1.05.19.08.29A1.22,1.22,0,0,1,40,101a1.32,1.32,0,0,1-.44.08,1.25,1.25,0,0,1-1.14-.78,5.05,5.05,0,0,1-.3-1.66A5.5,5.5,0,0,1,38.48,96.71Z"/><path class="cls-6" d="M42.32,95.22a1.24,1.24,0,0,1-.9.4,1.22,1.22,0,0,1-.82-.32,1.16,1.16,0,0,1-.4-.85,1.19,1.19,0,0,1,.32-.88,20.91,20.91,0,0,1,2.13-2h0a1.22,1.22,0,0,1,.9-.27,1.2,1.2,0,0,1,.82.44,1.22,1.22,0,0,1-.17,1.72A19.24,19.24,0,0,0,42.32,95.22Z"/><path class="cls-6" d="M42.4,101.14h0a11.86,11.86,0,0,0,2.27,1,1.22,1.22,0,0,1,.71.61,1.2,1.2,0,0,1,.07.93,1.22,1.22,0,0,1-1.54.78,13.93,13.93,0,0,1-2.76-1.22,1.21,1.21,0,0,1-.42-1.67A1.21,1.21,0,0,1,42.4,101.14Z"/></g><path class="cls-4" d="M50,99.63c-.4-1.11-.75-2.25-1-3.4a37.08,37.08,0,0,1-1-5.76l-.34.22A1.24,1.24,0,0,1,46,90.35a1.22,1.22,0,0,1,.34-1.69c.38-.26.78-.51,1.2-.77a1.14,1.14,0,0,1,.36-.15c0-.1,0-.21,0-.32,0-.6,0-1.21,0-1.8.05-1.2.17-2.41.34-3.61.07-.48.16-1,.27-1.6l.06-.34c.11-.54.22-1,.34-1.53l.07-.28c.11-.46.24-.91.37-1.37l.08-.26c.14-.47.29-.95.47-1.47l.13-.34c.2-.56.37-1,.55-1.47l0-.08c.17-.42.36-.86.59-1.36l.16-.35c.23-.48.45-.92.67-1.34l.16-.3c.21-.39.43-.78.65-1.16l.16-.27c.24-.41.5-.82.79-1.26.08-.12.15-.24.23-.35.32-.48.6-.88.87-1.24A36.49,36.49,0,0,1,62.49,58a36.87,36.87,0,0,1,8.42-4.72L67.1,59.47a1.23,1.23,0,0,1,.76-1.55,1.28,1.28,0,0,1,.94.06,1.22,1.22,0,0,1,.62.7l3.79-6.24a36.53,36.53,0,0,1,40.38,12.88,36.74,36.74,0,0,1,4,6.82,1.09,1.09,0,0,1,.36,0c.49.06,1,.14,1.41.22a1.22,1.22,0,1,1-.42,2.4l-.31-.05a36.09,36.09,0,0,1,2.16,11.09,1.23,1.23,0,0,1,1.05.54,1.23,1.23,0,0,1-.34,1.7l-.71.46A36.7,36.7,0,0,1,116.2,105c-.49.88-1,1.76-1.59,2.59l-.24.36c-.27.38-.54.76-.83,1.14l-.41.54c-.16.21-.31.41-.48.6s-.53.65-.81,1l-.37.41,0,0c-.27.29-.54.59-.82.88l0,0-.28.28c-.33.33-.66.66-1,1l-.29.27c-.38.34-.77.69-1.18,1l-.25.21c-.49.41-.91.74-1.32,1s-.83.61-1.24.89c-.83.57-1.69,1.11-2.56,1.61-.42.24-.86.48-1.31.71-.87.45-1.77.87-2.67,1.25-.55.23-1.13.45-1.75.67l3.66,10.76a1.22,1.22,0,0,1-.76,1.55,1.34,1.34,0,0,1-.4.06,1.21,1.21,0,0,1-1.15-.83l-3.68-10.79a36.66,36.66,0,0,1-22.23-.71c-.65-.23-1.31-.48-2-.75a36.67,36.67,0,0,1-4.68-2.37l-.9-.56a36.5,36.5,0,0,1-9.48-8.82,38.46,38.46,0,0,1-3-4.8,1.21,1.21,0,0,1-1,.51H51c-1-.11-1.94-.25-2.81-.4a1.24,1.24,0,0,1-1-1.42,1.19,1.19,0,0,1,.51-.79,1.23,1.23,0,0,1,.91-.2c.79.14,1.65.27,2.55.37-.16-.36-.32-.71-.47-1.07C50.46,100.74,50.24,100.19,50,99.63Z"/><path class="cls-4" d="M125,76.64a1.17,1.17,0,0,1-.61-.17,11.76,11.76,0,0,0-2.29-1,1.22,1.22,0,0,1,.74-2.33h0a14.48,14.48,0,0,1,2.76,1.19A1.23,1.23,0,0,1,126,76,1.25,1.25,0,0,1,125,76.64Z"/><path class="cls-4" d="M124.59,82.35h0a1.24,1.24,0,0,1,.85-.4,1.22,1.22,0,0,1,1,2,21,21,0,0,1-2.13,2,1.24,1.24,0,0,1-.78.28,1.22,1.22,0,0,1-.94-.44,1.21,1.21,0,0,1-.28-.89,1.22,1.22,0,0,1,.44-.83A16.89,16.89,0,0,0,124.59,82.35Z"/><path class="cls-4" d="M126.1,80a3,3,0,0,0,.17-1,2.72,2.72,0,0,0,0-.49,2.53,2.53,0,0,0-.12-.36,1.2,1.2,0,0,1,0-.93,1.23,1.23,0,0,1,2.26,0,5.32,5.32,0,0,1,.25.77,4.55,4.55,0,0,1,.12,1,5.48,5.48,0,0,1-.31,1.75,1.22,1.22,0,0,1-1.16.82,1.32,1.32,0,0,1-.39-.06A1.23,1.23,0,0,1,126.1,80Z"/><path class="cls-4" d="M39.37,95.82a1.19,1.19,0,0,1,.64-.68,1.2,1.2,0,0,1,.93,0,1.23,1.23,0,0,1,.72,1.57,3,3,0,0,0-.21,1,2,2,0,0,0,.06.49,1.31,1.31,0,0,0,.09.28,1.23,1.23,0,0,1-.7,1.58,1.15,1.15,0,0,1-.44.09,1.23,1.23,0,0,1-1.14-.79,4.31,4.31,0,0,1-.19-.61,4.55,4.55,0,0,1-.12-1A5.45,5.45,0,0,1,39.37,95.82Z"/><path class="cls-4" d="M43.21,94.33a1.23,1.23,0,0,1-.9.39,1.19,1.19,0,0,1-.82-.32,1.21,1.21,0,0,1-.08-1.72,20.84,20.84,0,0,1,2.13-2h0a1.21,1.21,0,0,1,1.71.17,1.21,1.21,0,0,1-.17,1.72A19.17,19.17,0,0,0,43.21,94.33Z"/><path class="cls-4" d="M43.3,100.24h0a11.46,11.46,0,0,0,2.26,1,1.22,1.22,0,0,1,.78,1.54,1.22,1.22,0,0,1-1.16.84,1.26,1.26,0,0,1-.38-.06A13.93,13.93,0,0,1,42,102.34a1.23,1.23,0,0,1-.42-1.67A1.23,1.23,0,0,1,43.3,100.24Z"/><path class="cls-7" d="M105,154.32a.67.67,0,0,0,.24,0,.76.76,0,0,0,.48-1L63.15,52.23a.76.76,0,0,0-1.43.49l42.52,101.09A.76.76,0,0,0,105,154.32Z"/><path class="cls-8" d="M45.29,120.5a49.06,49.06,0,1,0,9.86-68.68A49.06,49.06,0,0,0,45.29,120.5Z"/><path class="cls-9" d="M45.17,120.58l.12-.08-.12.08a49.25,49.25,0,1,1,39.45,19.7A48.93,48.93,0,0,1,45.17,120.58ZM55.24,51.93a48.92,48.92,0,1,0,36.27-9.26,49.38,49.38,0,0,0-7.05-.51A48.56,48.56,0,0,0,55.24,51.93Z"/><path class="cls-10" d="M121.86,121.79c-.25.59-.47,1.19-.75,1.76a5.85,5.85,0,0,1-.28.56l-.6.65-2.3-1.15a7.24,7.24,0,0,1-.4-1.16,10.76,10.76,0,0,0-.64-2.3,5,5,0,0,0-2.88-2.72c-1.65-.51-4-.67-5.33-1.93a3.14,3.14,0,0,0-1.06-.78c-2.08-.7-4.34-.72-6.48-1.31-2.85-.77-4.69-2.2-7.12-3.79-2.13-1.39-5.5-1.65-7-3.9-2-3,1.09-5.55,2.45-8.08s3-5.61,2.67-8.68c-.31-2.81-2.06-6.49-1-9.25.48-1.32,1.31-.9,2-1.72.5-.61.81-1.31,1.29-1.93,1.48-1.88,4.26-1.44,6.29-1.14.82.12,3.62.57,3.63-1,0-2.56-2.58-7.4-5.27-4.35-1.57,1.8-5.32,1.75-5.92-1-.24-1.13.37-1.76.91-2.54A4.26,4.26,0,0,0,95.1,63.6c0-1-1.73-.94-2.33-.77-1.52.43-4.34,1.42-4.65,3.26-.2,1.21,0,3.78-1.2,4.42-2.56,1.35-3.47-.36-5.27-1.32-2.05-1.09-4,.5-5.52,1.71-2.35,1.82-5.12,2.83-6.82,5.37-1.37,2-3.1.81-4.81-.17-1.08-.62-2.12-1.28-3.17-1.93a20,20,0,0,1-3.5-2.2c-2-2-1.36-5.57.84-7.22,2.73-2,5.9-3.43,8.35-5.91a4.48,4.48,0,0,0,1.61-2.92c.08-1.75-.62-3.59.86-5a.43.43,0,0,0-.13-.72c-2.57-1.14-4.1.65-6.53,1.24-1.69.4-3.3-.49-4.87-1.6a49.05,49.05,0,0,1,48.74-2.56c-1,.8-2.43,2-2.33,3.07a4,4,0,0,0,.73,1.95c1,1.49.76,2.25-.06,3.56-2.48,4,3.43,8.62,3.09,12.66-.14,1.61-.46,6.16,2.63,4.94a20.55,20.55,0,0,0,3.21-2c3.89-2.4,2.91,3.58,2.52,5.56-.81,4.15,1.83,4.54,5.26,5.69,1.94.65.73,4.17,1.29,6,.88,2.79,2.56,4.7,4,7.17,1.37,2.32-.11,2.9-.65,4.74a19.72,19.72,0,0,0-.66,3.39c-.28,2.69-.87,5.51-.71,8.22.15,2.42-1.52,4.82-2.35,7.06C122.6,119.52,122.24,120.55,121.86,121.79Z"/><path class="cls-10" d="M45.29,120.5a49.08,49.08,0,0,0,54.47,17.24c-.35-.11-.7-.23-1.06-.33-2.73-.74-5,.91-7.72.59-1.39-.16-2.62-1.24-3.68-2.07a10.71,10.71,0,0,0-3.85-2,6.53,6.53,0,0,1-2.33-.88,3.53,3.53,0,0,1-1.39-3.19c0-1.69.36-3.07-1.82-3.91-.86-.33-1.81-.42-2.69-.73-2.57-.9-2.17-4.21-1.9-6.37A2.87,2.87,0,0,1,75,116.66c.82-.48,2.68-.61,2.28-2.24a18.92,18.92,0,0,0-1.3-3.09c-1-2.31-.4-6.5-4.66-4.78a6.18,6.18,0,0,1-4.76.44,15.15,15.15,0,0,1-3.36-2c-2.61-1.73-3.7,2.78-5,4.09a2,2,0,0,1-2.44.05c-2.87-1.46-3.85,2.7-4.69,4.69-.17.39-.65.3-.94.1-1.17-.83-4-1.78-3.93-3.71A3,3,0,0,1,47,108c1.58-1.81-.6-2.52-.48-3.94.15-1.67,1.27-2.16,2.76-2.72s3.69-1.1,2.32-3.19a6.32,6.32,0,0,1-1.12-2.46c-.05-.3.33-.4.55-.4,2.33,0,6.33-1.49,3.66-4.11a24.25,24.25,0,0,1-3.09-3.82c-1.2-1.77-3.1-5-5.6-3.74a3,3,0,0,1-2.58.18c-1.61-1-.84-3.34-.69-4.93.27-2.77-1.92-3.66-4.39-4.12A49,49,0,0,0,45.29,120.5ZM41,93c-.22-.17-.32-.44-.06-.65a3.47,3.47,0,0,1,3.27-.82,4.61,4.61,0,0,1,2.46,2.76c.16.35-.24.53-.51.52a9.72,9.72,0,0,1-4.91-1.53A.61.61,0,0,1,41,93Z"/><path class="cls-11" d="M86.62,63.32c-.87,1-.29,2.6-.16,3.76.4,3.57-1.86,1.16-3.21.61s-1.65-1.35-3.21-1a16.78,16.78,0,0,0-4.38,1.77,23,23,0,0,0-5.25,3.43c-2.5,2.32-4,3.89-7.66,1.56C61,72.31,57.47,70,59.55,67.32c1.44-1.83,3.22-2.64,5.27-3.61a12.69,12.69,0,0,0,5-3.79c1.05-1.36.92-3.34,1.94-4.83.72-1.06,1.89-2.42,2-3.76.35-2.92-3.26-3.23-5.38-3.06a6.25,6.25,0,0,0-2.24,1c-2.28,1.34-4.06,1.05-6.28.24l-.85-.32a49.07,49.07,0,0,1,46.29-2.53,1.31,1.31,0,0,1-.55.82,3,3,0,0,0-.62.5c-.34.43-.9,1.09-.78,1.7.34,1.85,2.17,4.29.24,6a3.79,3.79,0,0,0-1.21,1.64c-.67,2.17,1.85,3.94,2.48,5.82a52.83,52.83,0,0,1,2.69,11.06,1,1,0,0,0,1.11.76c1.85-.42,3.26-1.49,5-2.22,3.6-1.5,1,5.1.89,6.18-.29,4.61,3.37,4.31,6.67,4.79a10.11,10.11,0,0,0,.74,6.7c1.73,3.47,4.27,6.67,3.49,10.78-.71,3.73-1.74,7.19-2.09,11-.4,4.33-2.48,7.59-4.33,11.26-.62-2.06.2-5.13-1.75-6.4-2.36-1.54-5.17-1.15-7.36-3.15-.94-.85-2.49-.87-3.64-.88-2.2,0-4.15.06-6.12-1.28a41.68,41.68,0,0,0-10.38-5.29c-7.38-2.61,5.51-11.51,4-16.58-1.17-4-1.51-9.84,2.52-12.61,2.13-1.47,5-.48,7.4-1.38a2.37,2.37,0,0,0,1.89.46c1.09-.4.82-1.85.8-2.77,0-1.76-.21-3.74-1.68-4.94s-3.42-1.94-5-3.14c.3-.93,1.24-2.53,1-3.15a17.74,17.74,0,0,0-2.52-3.42A1.08,1.08,0,0,0,97,58.57C93.67,59.66,89,60.48,86.62,63.32Z"/><path class="cls-11" d="M46.4,119.75c.76-1.16,1.29-3.83,3.21-3.42.3.06.92,0,1-.34l.35-.07a1,1,0,0,0,.16-.06l.16.12c.39.23,1.07.2,1.25-.29a34.88,34.88,0,0,0,1-4.11c.38-1.64,3.18-.59,4.26-.38a.77.77,0,0,0,.72-.27c1.25-1.7,3.41-5.62,5.76-3.39a4.47,4.47,0,0,0,2.94,1.36,22.06,22.06,0,0,0,4.72-.25c1.94-.14,4.24,5,1.95,5.79S70,116.6,69.6,119c-.34,2.13-1.14,5.85.17,7.79a2.36,2.36,0,0,0,1.59,1.11c2.27.34,4.23.94,5.1,3.3,1.14,3.06,1.34,3.74,4.27,5.49a14.07,14.07,0,0,0,7.4,2.25,30.52,30.52,0,0,1,5.34.33,49.07,49.07,0,0,1-47.89-18.71A2.44,2.44,0,0,0,46.4,119.75Z"/><path class="cls-11" d="M37.87,76.06a8,8,0,0,1,1,.12c3.71.69,2.3,5.12,2.45,7.71.08,1.39.94,4.85,0,6S38.09,93.16,40,94.51c2.41,1.73,5.49,1.86,8,3.37l0,0c.38.24.74.48,1.09.75s1,.74.22,1.27a5,5,0,0,1-2.07.74c-1.11.17-2.24.19-3.35.36a.76.76,0,0,0-.52.31A.48.48,0,0,0,43,102c.83,1.9-2.09,2.93-.95,4.76a12,12,0,0,0,1.17,1.42,14.45,14.45,0,0,1,.45,1.65,2.33,2.33,0,0,1-.36.67l-.06.07c-1.16.45-2.37,1.19-2.27,2.53a4.55,4.55,0,0,0,.1.61A49,49,0,0,1,37.87,76.06Z"/><path class="cls-11" d="M49,93c1-.18,2.74-.61,3.09-1.76s-.55-2.37-1.26-3.28a12.9,12.9,0,0,0-4-3.08c-.84-.46-2.27,0-2.19,1.09a7.24,7.24,0,0,0,.59,2.09c.05.13.08.26.12.39a9,9,0,0,0,.67,2.85A3.26,3.26,0,0,0,49,93Z"/><path class="cls-11" d="M95.78,70.76c.93.16,2.45-.38,2.66-1.43a2.56,2.56,0,0,0-.7-2,1.56,1.56,0,0,0-.57-.65l-.08-.07a.35.35,0,0,0-.34-.09,2,2,0,0,0-2.42,2A2.08,2.08,0,0,0,95.78,70.76Z"/><path class="cls-12" d="M86.26,42.42s40.06,2.25,45.25,41.31C131.51,83.73,123.45,48.24,86.26,42.42Z"/><g class="cls-5"><path class="cls-13" d="M35.85,84.1a49,49,0,0,1,9-22.07,49.2,49.2,0,0,0,84,50.56A49.19,49.19,0,0,1,35.85,84.1Z"/></g><path class="cls-14" d="M47.18,114.76c-1.3,0-2.58,0-3.81-.09a.75.75,0,0,1-.72-.79.77.77,0,0,1,.79-.73c1.2.06,2.47.09,3.75.1a.76.76,0,0,1,0,1.51ZM51,114a.75.75,0,0,1,.73-.78c1.21,0,2.48-.1,3.75-.18a.76.76,0,1,1,.1,1.51c-1.29.08-2.57.15-3.8.19h0A.76.76,0,0,1,51,114Zm8.3-.48a.76.76,0,0,1,.68-.83c1.23-.11,2.49-.23,3.75-.38a.76.76,0,0,1,.84.67.77.77,0,0,1-.67.84l-3.78.39H60A.75.75,0,0,1,59.26,113.48Zm8.26-.92a.75.75,0,0,1,.65-.85c1.22-.17,2.46-.35,3.72-.55a.76.76,0,0,1,.24,1.5c-1.27.2-2.52.38-3.76.55h-.1A.76.76,0,0,1,67.52,112.56Zm8.21-1.27a.76.76,0,0,1,.62-.88c1.22-.22,2.45-.45,3.7-.7a.76.76,0,0,1,.29,1.49c-1.25.25-2.49.48-3.73.7l-.13,0A.77.77,0,0,1,75.73,111.29Zm8.16-1.59a.75.75,0,0,1,.58-.9l3-.67.7-.17a.76.76,0,1,1,.35,1.48l-.71.17-3,.67-.16,0A.77.77,0,0,1,83.89,109.7Zm8.1-1.89a.76.76,0,0,1,.54-.93c1.23-.31,2.44-.63,3.64-1a.76.76,0,1,1,.41,1.46c-1.21.33-2.44.66-3.67,1a.63.63,0,0,1-.19,0A.75.75,0,0,1,92,107.81Zm8-2.19a.76.76,0,0,1,.51-.94q1.83-.54,3.6-1.11a.77.77,0,0,1,.95.5.75.75,0,0,1-.49,1q-1.78.57-3.63,1.11a.78.78,0,0,1-.22,0A.76.76,0,0,1,100,105.62Zm7.93-2.5a.74.74,0,0,1,.47-1L112,100.9a.76.76,0,1,1,.52,1.42c-1.17.43-2.36.86-3.58,1.27a.67.67,0,0,1-.24,0A.75.75,0,0,1,107.94,103.12Zm7.81-2.85a.74.74,0,0,1,.42-1c1.18-.47,2.35-1,3.48-1.44a.76.76,0,1,1,.6,1.4c-1.14.48-2.32,1-3.51,1.45a1,1,0,0,1-.29,0A.75.75,0,0,1,115.75,100.27ZM123.4,97a.75.75,0,0,1,.36-1c1.16-.55,2.29-1.11,3.37-1.66a.76.76,0,1,1,.69,1.35c-1.09.56-2.24,1.13-3.41,1.68a.77.77,0,0,1-.32.07A.76.76,0,0,1,123.4,97Zm7.4-3.79a.76.76,0,0,1,.27-1c1.12-.66,2.19-1.32,3.17-2a.76.76,0,0,1,.84,1.26c-1,.67-2.09,1.35-3.24,2a.78.78,0,0,1-.39.1A.75.75,0,0,1,130.8,93.23Zm6.92-4.59a.77.77,0,0,1,.1-1.07,23.36,23.36,0,0,0,2.66-2.52.76.76,0,0,1,1.13,1,25.33,25.33,0,0,1-2.82,2.68.72.72,0,0,1-.48.17A.76.76,0,0,1,137.72,88.64Zm5.48-6.16a.78.78,0,0,1-.47-1,4.93,4.93,0,0,0,.29-1.6,3.65,3.65,0,0,0-.1-.88,3.79,3.79,0,0,0-.21-.65.76.76,0,0,1,1.4-.6,5.89,5.89,0,0,1,.29.9,5.59,5.59,0,0,1,.14,1.23,6.69,6.69,0,0,1-.37,2.1.76.76,0,0,1-.72.51A1.18,1.18,0,0,1,143.2,82.48Zm-3.3-6.91a16.71,16.71,0,0,0-3.32-1.42.75.75,0,0,1-.49-1,.78.78,0,0,1,1-.5,19.09,19.09,0,0,1,3.61,1.55.76.76,0,0,1-.38,1.42A.75.75,0,0,1,139.9,75.57Z"/><path class="cls-14" d="M132.36,73.12a.75.75,0,0,0,.75-.63.77.77,0,0,0-.61-.88c-.62-.1-1.25-.2-1.91-.29a.76.76,0,1,0-.2,1.5c.63.09,1.25.18,1.84.29Z"/><g class="cls-5"><polygon class="cls-13" points="116.65 105.55 106.18 105.31 112.63 97.36 116.65 105.55"/><polygon class="cls-13" points="66.56 118.28 56.6 115.02 65.08 109.27 66.56 118.28"/><path class="cls-13" d="M115.75,101.79a.74.74,0,0,1,.42-1c1.19-.48,2.35-1,3.47-1.44a.77.77,0,0,1,1,.4.76.76,0,0,1-.4,1c-1.14.49-2.31,1-3.51,1.45a.92.92,0,0,1-.28,0A.74.74,0,0,1,115.75,101.79Z"/><path class="cls-13" d="M123.76,97.53c1.15-.55,2.28-1.11,3.36-1.66a.76.76,0,1,1,.7,1.35c-1.1.56-2.25,1.13-3.42,1.68a.71.71,0,0,1-.32.07.75.75,0,0,1-.32-1.44Z"/><path class="cls-13" d="M92.53,108.4c1.23-.31,2.44-.63,3.64-1a.75.75,0,0,1,.93.53.76.76,0,0,1-.53.93c-1.21.33-2.43.66-3.66,1l-.19,0a.76.76,0,0,1-.19-1.5Z"/><path class="cls-13" d="M100.51,106.2c1.22-.37,2.42-.73,3.61-1.11a.76.76,0,0,1,.95.5.77.77,0,0,1-.5,1c-1.19.37-2.4.75-3.62,1.11a.83.83,0,0,1-.22,0,.76.76,0,0,1-.22-1.48Z"/><path class="cls-13" d="M131.07,93.71c.89-.52,1.72-1,2.53-1.56,0,.62,0,1.23-.08,1.85-.54.34-1.11.68-1.69,1a.75.75,0,0,1-.38.1.77.77,0,0,1-.66-.37A.76.76,0,0,1,131.07,93.71Z"/><path class="cls-13" d="M76.34,111.93c1.23-.22,2.46-.45,3.7-.7a.76.76,0,0,1,.3,1.49c-1.26.25-2.5.48-3.73.7h-.13a.76.76,0,0,1-.14-1.5Z"/><path class="cls-13" d="M43.44,114.67c1.2,0,2.47.09,3.75.09a.76.76,0,0,1,0,1.52h0c-1.3,0-2.58,0-3.81-.09a.76.76,0,0,1-.72-.8A.77.77,0,0,1,43.44,114.67Z"/><path class="cls-13" d="M68.16,113.23c1.23-.17,2.47-.36,3.73-.55a.76.76,0,0,1,.23,1.5c-1.26.2-2.51.38-3.75.55h-.1a.76.76,0,0,1-.11-1.51Z"/><path class="cls-13" d="M84.47,110.31c1-.21,2-.44,3-.67l.7-.16a.76.76,0,0,1,.35,1.48l-.71.16-3,.68h-.16a.75.75,0,0,1-.74-.59A.77.77,0,0,1,84.47,110.31Z"/><path class="cls-13" d="M51.69,114.7c1.23,0,2.49-.11,3.75-.18a.76.76,0,1,1,.1,1.51c-1.28.08-2.56.14-3.8.18h0a.75.75,0,0,1-.76-.73A.75.75,0,0,1,51.69,114.7Z"/><path class="cls-13" d="M130.14,72.93c.19.49.38,1,.56,1.46l-.31,0a.76.76,0,0,1-.65-.86A.74.74,0,0,1,130.14,72.93Z"/></g><polygon class="cls-14" points="112.63 95.84 116.65 104.03 106.18 103.79 112.63 95.84"/><polygon class="cls-14" points="65.08 107.76 66.56 116.76 56.6 113.5 65.08 107.76"/><text class="cls-15" transform="translate(35.07 109.13) rotate(-105.86) scale(0.91 1)">a</text><text class="cls-15" transform="translate(33.29 102.95) rotate(-99.35) scale(0.91 1)">M</text><text class="cls-15" transform="translate(32.17 96.24) rotate(-92.47) scale(0.91 1)">M</text><text class="cls-15" transform="matrix(0.07, -0.91, 1, 0.08, 31.87, 89.42)">A</text><text class="cls-15" transform="translate(32.37 83.04) rotate(-78.93) scale(0.91 1)">R</text><text class="cls-15" transform="translate(33.55 77.27) rotate(-74.15) scale(0.91 1)"> </text><text class="cls-15" transform="matrix(0.34, -0.85, 0.93, 0.38, 34.11, 74.66)">W</text><text class="cls-15" transform="matrix(0.46, -0.79, 0.86, 0.51, 37.36, 66.89)">O</text><text class="cls-15" transform="matrix(0.55, -0.73, 0.8, 0.6, 40.28, 61.87)">R</text><text class="cls-15" transform="translate(43.79 57.23) rotate(-46.98) scale(0.91 1)">L</text><text class="cls-15" transform="translate(47 53.74) rotate(-40.92) scale(0.91 1)">D</text><text class="cls-15" transform="matrix(0.77, -0.5, 0.54, 0.84, 51.23, 49.91)">W</text><text class="cls-15" transform="translate(58.47 45.43) rotate(-26.7) scale(0.91 1)">I</text><text class="cls-15" transform="translate(60.5 44.33) rotate(-22.18) scale(0.91 1)">D</text><text class="cls-15" transform="translate(65.87 42.15) rotate(-16.36) scale(0.91 1)">E</text><text class="cls-15" transform="translate(70.67 40.78) rotate(-12.27) scale(0.91 1)"> </text><text class="cls-15" transform="translate(73.27 40.05) rotate(-6.49) scale(0.91 1)">W</text><text class="cls-15" transform="translate(81.71 39.19) rotate(0.23) scale(0.91 1)">E</text><text class="cls-15" transform="translate(86.69 39.18) rotate(5.42) scale(0.91 1)">B</text><text class="cls-15" transform="translate(92.36 39.77) rotate(9.44) scale(0.91 1)"> </text><text class="cls-15" transform="translate(95.07 40.16) rotate(13.51) scale(0.91 1)">D</text><text class="cls-15" transform="matrix(0.87, 0.29, -0.32, 0.95, 100.74, 41.53)">E</text><text class="cls-15" transform="translate(105.47 43.09) rotate(23.42) scale(0.91 1)">S</text><text class="cls-15" transform="translate(110.68 45.4) rotate(27.06) scale(0.91 1)">I</text><text class="cls-15" transform="matrix(0.79, 0.47, -0.51, 0.86, 112.79, 46.42)">G</text><text class="cls-15" transform="matrix(0.74, 0.54, -0.59, 0.81, 117.76, 49.36)">N</text></g></g></g></svg>